<?xml version="1.0" encoding="utf-8"?>
<!-- Generator: Adobe Illustrator 22.0.1, SVG Export Plug-In . SVG Version: 6.00 Build 0)  -->
<svg version="1.1" id="Layer_1" xmlns="http://www.w3.org/2000/svg" xmlns:xlink="http://www.w3.org/1999/xlink" x="0px" y="0px"
	 viewBox="0 0 512 512" style="enable-background:new 0 0 512 512;" xml:space="preserve">
<style type="text/css">
	.st0{fill:none;stroke:#FFFFFF;stroke-width:28;stroke-miterlimit:10;}
</style>
<path class="st0" d="M470,224h-57.2c-4.1-20.4-12.2-39.4-23.3-56.2l40.5-40.5c3.9-3.9,3.9-10.3,0-14.2L398.8,82
	c-3.9-3.9-10.3-3.9-14.2,0l-40.5,40.5c-16.8-11.1-35.8-19.2-56.2-23.3V42c0-5.5-4.5-10-10-10h-44c-5.5,0-10,4.5-10,10v57.2
	c-20.4,4.1-39.4,12.2-56.2,23.3L127.3,82c-3.9-3.9-10.3-3.9-14.2,0L82,113.2c-3.9,3.9-3.9,10.3,0,14.2l40.5,40.5
	c-11.1,16.8-19.2,35.8-23.3,56.2H42c-5.5,0-10,4.5-10,10v44c0,5.5,4.5,10,10,10h57.2c4.1,20.4,12.2,39.4,23.3,56.2L82,384.7
	c-3.9,3.9-3.9,10.3,0,14.2l31.1,31.1c3.9,3.9,10.3,3.9,14.2,0l40.5-40.5c16.8,11.1,35.8,19.2,56.2,23.3V470c0,5.5,4.5,10,10,10h44
	c5.5,0,10-4.5,10-10v-57.2c20.4-4.1,39.4-12.2,56.2-23.3l40.5,40.5c3.9,3.9,10.3,3.9,14.2,0l31.1-31.1c3.9-3.9,3.9-10.3,0-14.2
	l-40.5-40.5c11.1-16.8,19.2-35.8,23.3-56.2H470c5.5,0,10-4.5,10-10v-44C480,228.5,475.5,224,470,224z M256,320
	c-35.3,0-64-28.7-64-64s28.7-64,64-64s64,28.7,64,64S291.3,320,256,320z"/>
</svg>
