<?xml version="1.0" encoding="utf-8"?>
<!-- Generator: Adobe Illustrator 22.0.1, SVG Export Plug-In . SVG Version: 6.00 Build 0)  -->
<svg version="1.1" id="Layer_1" xmlns="http://www.w3.org/2000/svg" xmlns:xlink="http://www.w3.org/1999/xlink" x="0px" y="0px"
	 viewBox="0 0 512 512" style="enable-background:new 0 0 512 512;" xml:space="preserve">
<style type="text/css">
	.st0{fill:none;stroke:#FFFFFF;stroke-width:28;stroke-linecap:round;stroke-linejoin:round;stroke-miterlimit:10;}
</style>
<path class="st0" d="M480,296v-80h-69c-3.8-14.7-9.6-28.5-17.1-41.3l48.8-48.8l-56.6-56.6l-48.8,48.8c-12.7-7.5-26.6-13.3-41.3-17.1
	V32h-80v69c-14.7,3.8-28.5,9.6-41.3,17.1l-48.8-48.8l-56.6,56.6l48.8,48.8c-7.5,12.7-13.3,26.6-17.1,41.3H32v80h69
	c3.8,14.7,9.6,28.5,17.1,41.3l-48.8,48.8l56.6,56.6l48.8-48.8c12.7,7.5,26.6,13.3,41.3,17.1v69h80v-69c14.7-3.8,28.5-9.6,41.3-17.1
	l48.8,48.8l56.6-56.6l-48.8-48.8c7.5-12.7,13.3-26.6,17.1-41.3H480z M319.6,263c-1.3,12.4-6.2,23.7-13.6,33c-2.9,3.7-6.3,7-10,10
	c-9.2,7.4-20.6,12.3-33,13.6c-2.3,0.3-4.7,0.4-7,0.4s-4.7-0.1-7-0.4c-12.4-1.3-23.7-6.2-33-13.6c-3.7-2.9-7-6.3-10-10
	c-7.4-9.2-12.3-20.6-13.6-33c-0.3-2.3-0.4-4.7-0.4-7s0.1-4.7,0.4-7c1.3-12.4,6.2-23.7,13.6-33c2.9-3.7,6.3-7,10-10
	c9.2-7.4,20.6-12.3,33-13.6c2.3-0.3,4.7-0.4,7-0.4s4.7,0.1,7,0.4c12.4,1.3,23.7,6.2,33,13.6c3.7,2.9,7,6.3,10,10
	c7.4,9.2,12.3,20.6,13.6,33c0.3,2.3,0.4,4.7,0.4,7S319.9,260.7,319.6,263z"/>
</svg>
