<svg height="512pt" viewBox="0 0 512 512" width="512pt" xmlns="http://www.w3.org/2000/svg"><path d="m121 121h270v270h-270zm0 0" fill="#47568c"/><path d="m256 121h135v270h-135zm0 0" fill="#2c3b73"/><path d="m280.902344 2.199219-16.203125 81-8.699219 8.703125-60 59.097656-75 140.699219-56.699219-35.699219-14.699219-149.097656c47.398438-65.703125 123.296876-106.902344 206.398438-106.902344 8.101562 0 16.5 1.300781 24.902344 2.199219zm0 0" fill="#ff641a"/><path d="m264.699219 83.199219-8.699219 8.703125v-91.902344c8.101562 0 16.5 1.300781 24.902344 2.199219zm0 0" fill="#f03800"/><path d="m23.886719 361 74.613281 30 97.5-30-146.527344-253.976562c-30.964844 42.804687-49.472656 94.867187-49.472656 148.976562 0 37.453125 9.320312 72.933594 23.886719 105zm0 0" fill="#979fef"/><path d="m316 361-17.402344 82.800781-42.597656 41.699219-24.902344 24.300781c-92.398437-9-170.398437-67.800781-207.296875-148.800781zm0 0" fill="#64e1dc"/><path d="m256 361h60l-17.402344 82.800781-42.597656 41.699219zm0 0" fill="#00c8c8"/><path d="m462.398438 405.097656c-47.398438 65.703125-123.296876 106.902344-206.398438 106.902344-8.101562 0-16.5-1.300781-24.902344-2.199219l24.902344-44.703125 150-269.097656zm0 0" fill="#7fe881"/><path d="m462.398438 405.097656c-47.398438 65.703125-123.296876 106.902344-206.398438 106.902344v-46.902344l150-269.097656zm0 0" fill="#5bc980"/><path d="m488.113281 151-74.613281-30-97.5 30 146.527344 253.976562c30.964844-42.804687 49.472656-94.867187 49.472656-148.976562 0-37.453125-9.320312-72.933594-23.886719-105zm0 0" fill="#fdbf00"/><path d="m488.199219 151h-292.199219l60-105.300781 24.902344-43.5c92.398437 9 170.398437 67.800781 207.296875 148.800781zm0 0" fill="#fdbf00"/><path d="m488.199219 151h-232.199219v-105.300781l24.902344-43.5c92.398437 9 170.398437 67.800781 207.296875 148.800781zm0 0" fill="#ff9100"/></svg>