<?xml version="1.0" encoding="utf-8"?>
<!-- Generator: Adobe Illustrator 22.0.1, SVG Export Plug-In . SVG Version: 6.00 Build 0)  -->
<svg version="1.1" id="Layer_1" xmlns="http://www.w3.org/2000/svg" xmlns:xlink="http://www.w3.org/1999/xlink" x="0px" y="0px"
	 viewBox="0 0 128 128" style="enable-background:new 0 0 128 128;" xml:space="preserve">
<style type="text/css">
	.st0{fill:#ECEFF1;}
</style>
<g id="surface1">
	<path class="st0" d="M99,61.2h25.2c2.1,0,3.8-1.5,3.8-3.3c0-1.8-1.7-3.3-3.8-3.3H99C94.5,49,77.7,30.5,57,30.5
		c-23.8,0-42.4,24.6-43.2,25.6c-0.9,1.1-0.9,2.7,0,3.8c0.6,0.7,10.9,14.4,26,21.4v30.7c0,1.8,1.7,3.3,3.7,3.3c2.1,0,3.8-1.5,3.8-3.3
		V89.7c6,6.4,13.1,12,21.3,16.2c12,6.1,25.6,9.5,39.4,9.5c10.9,0,19.8-8,19.8-17.8c0-8.2-7.4-14.9-16.6-14.9c-7.7,0-14,5.7-14,12.7
		c0,5.9,5.4,10.8,12,10.8c2.1,0,3.7-1.5,3.7-3.3c0-1.8-1.7-3.3-3.7-3.3c-2.5,0-4.5-1.7-4.5-4.1c0-3.2,2.9-5.9,6.5-5.9
		c5,0,9.1,3.7,9.1,8.2c0,6.1-5.5,11.1-12.3,11.1c-21.9,0-41.9-8.7-55.3-23.6c1.4,0.1,2.8,0.2,4.2,0.2C77.7,85.3,94.5,66.8,99,61.2z
		 M21.4,57.9c4.5-5.4,18.9-20.6,35.5-20.6s30.8,15.2,35.5,20.6c-4.5,5.4-18.9,20.6-35.5,20.6c-4.1,0-8-1-11.7-2.5
		c-0.1-0.1-0.2-0.1-0.4-0.1C33.8,71.5,24.9,61.9,21.4,57.9z"/>
	<path class="st0" d="M57,73.4c9.5,0,17.1-6.9,17.1-15.4S66.3,42.5,57,42.5c-9.5,0-17.1,6.9-17.1,15.4S47.5,73.4,57,73.4z M57,49.3
		c5.3,0,9.6,3.8,9.6,8.7c0,4.8-4.3,8.7-9.6,8.7s-9.6-3.8-9.6-8.7C47.3,53.1,51.6,49.3,57,49.3z"/>
	<path class="st0" d="M107.4,42.3c0.7,0.6,1.6,1,2.6,1h14.1c2.1,0,3.8-1.5,3.8-3.3s-1.7-3.3-3.8-3.3h-12.5
		C98.8,25.3,79,12.4,57,12.4c-22.9,0-43,13.6-55.8,25.1c-1.5,1.2-1.5,3.4,0,4.8c0.7,0.6,1.7,1,2.7,1s1.8-0.4,2.6-1
		c11.8-10.4,30.1-23,50.5-23C77.1,19.2,95.6,31.7,107.4,42.3z"/>
</g>
</svg>
