<svg height="512pt" viewBox="0 -15 512 511" width="512pt" xmlns="http://www.w3.org/2000/svg"><path d="m210.570312 282.914062-120.234374-113.945312c-53.53125 27.394531-90.335938 82.996094-90.335938 147.148438 0 91.160156 74.164062 165.320312 165.324219 165.320312 33.265625 0 64.214843-9.960938 90.175781-26.9375zm0 0" fill="#64e1dc"/><path d="m420.820312 165.824219c0 1.199219 0 2.101562-.300781 3.003906l-165.019531 69.132813-165.023438-69.132813c-.300781-.902344-.300781-1.804687-.300781-3.003906 0-91.082031 74.246094-165.324219 165.324219-165.324219s165.320312 74.242188 165.320312 165.324219zm0 0" fill="#ff641a"/><path d="m420.820312 165.824219c0 1.199219 0 2.101562-.300781 3.003906l-165.019531 69.132813v-237.460938c91.078125 0 165.320312 74.242188 165.320312 165.324219zm0 0" fill="#f03800"/><path d="m420.664062 168.96875-120.234374 113.945312-44.929688 171.585938c25.960938 16.976562 56.90625 26.9375 90.175781 26.9375 91.160157 0 166.324219-74.160156 166.324219-165.320312 0-64.152344-37.804688-119.753907-91.335938-147.148438zm0 0" fill="#ffb64c"/><path d="m345.675781 150.792969c-33.269531 0-64.214843 9.964843-90.175781 26.941406l74.988281 135.238281c52.644531-26.941406 88.984375-81.191406 90.175781-144.003906-22.539062-11.535156-47.980468-18.175781-74.988281-18.175781zm0 0" fill="#ff9100"/><path d="m165.324219 150.792969c-27.007813 0-52.449219 6.640625-74.988281 18.175781 1.191406 62.8125 37.527343 117.0625 90.175781 144.003906l74.988281-135.238281c-25.960938-16.976563-56.910156-26.941406-90.175781-26.941406zm0 0" fill="#979fef"/><path d="m330.644531 316.117188c0 58.011718-30.058593 108.8125-75.144531 138.269531-45.089844-29.457031-75.148438-80.257813-75.148438-138.269531 0-1.203126 0-2.105469.300782-3.007813h149.691406c.300781.902344.300781 1.804687.300781 3.007813zm0 0" fill="#c3ea21"/><path d="m330.34375 313.109375c.300781.902344.300781 1.804687.300781 3.007813 0 58.011718-30.058593 108.8125-75.144531 138.269531v-141.277344zm0 0" fill="#9cdd05"/><path d="m330.34375 313.109375c-22.542969 11.421875-47.789062 18.035156-74.84375 18.035156s-52.304688-6.613281-74.847656-18.035156c.902344-56.808594 30.359375-106.40625 74.847656-135.265625 44.484375 28.859375 73.945312 78.457031 74.84375 135.265625zm0 0" fill="#e0f4ff"/><path d="m330.34375 313.109375c-22.542969 11.421875-47.789062 18.035156-74.84375 18.035156v-153.300781c44.484375 28.859375 73.945312 78.457031 74.84375 135.265625zm0 0" fill="#bbdcff"/></svg>