<svg height="512pt" viewBox="-31 0 512 512" width="512pt" xmlns="http://www.w3.org/2000/svg"><path d="m195 300h60v212h-60zm0 0" fill="#61729b"/><path d="m225 300h30v212h-30zm0 0" fill="#47568c"/><path d="m450 60v116.398438l-210 60v63.601562h-30v-86.398438l15-4.203124 195-55.796876v-63.601562h-45v-30zm0 0" fill="#e0f4ff"/><path d="m450 60v116.398438l-210 60v63.601562h-15v-90.601562l195-55.796876v-63.601562h-45v-30zm0 0" fill="#bbdcff"/><path d="m390 0v150h-390v-150h60l30 30h90l30-30zm0 0" fill="#9cdd05"/><path d="m225 0h165v150h-165zm0 0" fill="#6b0"/><path d="m60 0v240c0 16.570312 13.429688 30 30 30s30-13.429688 30-30v-120h30v30c0 16.570312 13.429688 30 30 30s30-13.429688 30-30v-150zm0 0" fill="#c3ea21"/><path d="m120 45h30v30h-30zm0 0" fill="#9cdd05"/><path d="m285 270-30 60h-60l-30-60zm0 0" fill="#c3ea21"/><path d="m225 270h60l-30 60h-30zm0 0" fill="#9cdd05"/></svg>