<svg height="512pt" viewBox="0 0 512 512" width="512pt" xmlns="http://www.w3.org/2000/svg"><path d="m255.914062 512c-79.351562 0-153.800781-36.976562-202.519531-99.714844-48.765625-62.800781-65.144531-144.171875-44.929687-223.257812 15.617187-61.097656 54.65625-115.046875 107.125-147.992188 110.6875-69.535156 254.554687-47.714844 338.839844 52.644532l4.160156 4.953124-23.304688 202.367188h-88.371094c-24.816406 0-45 20.1875-45 45s20.183594 45 45 45c23.582032 0 43.109376 15.628906 48.574219 38.878906 5.285157 22.46875-4.851562 45.367188-25.226562 55.535156-35.40625 17.636719-74.550781 26.585938-114.347657 26.585938zm0 0" fill="#ffd396"/><path d="m255.914062.613281v511.386719c39.796876 0 78.941407-8.949219 114.347657-26.585938 20.375-10.167968 30.515625-33.066406 25.226562-55.535156-5.464843-23.25-24.992187-38.878906-48.574219-38.878906-24.816406 0-45-20.1875-45-45s20.183594-45 45-45h88.371094l23.308594-202.367188-4.160156-4.953124c-51.148438-60.894532-124.226563-92.867188-198.519532-93.066407zm0 0" fill="#ffb64c"/><path d="m285.914062 151c-24.816406 0-45-20.1875-45-45s20.183594-45 45-45c24.8125 0 46 20.1875 46 45s-21.1875 45-46 45zm0 0" fill="#ff641a"/><path d="m252.914062 136.554688c8.222657 8.875 19.96875 14.445312 33 14.445312 24.8125 0 46-20.1875 46-45s-21.1875-45-46-45c-13.03125 0-24.777343 5.570312-33 14.445312zm0 0" fill="#f03800"/><path d="m164.914062 181c-24.816406 0-45-20.1875-45-45s20.183594-45 45-45c24.8125 0 45 20.1875 45 45s-20.1875 45-45 45zm0 0" fill="#47568c"/><path d="m104.914062 301c-24.816406 0-45-20.1875-45-45s20.183594-45 45-45c24.8125 0 45 20.1875 45 45s-20.1875 45-45 45zm0 0" fill="#9cdd05"/><path d="m164.914062 421c-24.816406 0-45-20.1875-45-45s20.183594-45 45-45c24.8125 0 45 20.1875 45 45s-20.1875 45-45 45zm0 0" fill="#00c8c8"/><path d="m406.914062 0h60v361h-60zm0 0" fill="#ff641a"/><path d="m436.914062 0h30v361h-30zm0 0" fill="#f03800"/><path d="m511.613281 373.898438c-4.5 1.199218-9.300781 32.101562-14.703125 32.101562-19.199218 0-36-12-36-12-.597656-.601562-9.898437-7.5-24-12.601562-8.398437-3-18.898437-5.398438-30-5.398438-17.398437 0-32.398437-24-42.296875-18.898438 8.398438-32.101562 37.5-56.101562 72.296875-56.101562 40.5 0 73.503906 32.398438 74.703125 72.898438zm0 0" fill="#47568c"/><path d="m511.613281 373.898438c-4.5 1.199218-9.300781 32.101562-14.703125 32.101562-19.199218 0-36-12-36-12-.597656-.601562-9.898437-7.5-24-12.601562v-80.398438c40.5 0 73.503906 32.398438 74.703125 72.898438zm0 0" fill="#2c3b73"/><path d="m511.613281 373.898438c.296875 9.300781-.300781 18.300781-4.800781 31.199218-10.199219 29.402344-35.101562 59.5-69.300781 106.902344-.300781-.300781-.601563-.601562-.601563-.902344-38.699218-52.5-66-83.796875-73.199218-117.699218-2.699219-14.398438-2.097657-24.300782.902343-36.296876 9.898438-5.101562 24.898438-11.101562 42.296875-11.101562 11.101563 0 21.601563 2.398438 30 5.398438 14.101563 5.101562 23.402344 12 24 12.601562 0 0 16.800782 12 36 12 5.402344 0 10.203125-.902344 14.703125-2.101562zm0 0" fill="#9cdd05"/><path d="m511.613281 373.898438c.296875 9.300781-.300781 18.300781-4.800781 31.199218-10.199219 29.402344-35.101562 59.5-69.300781 106.902344-.300781-.300781-.601563-.601562-.601563-.902344v-159.699218c14.101563 5.101562 23.402344 12 24 12.601562 0 0 16.800782 12 36 12 5.402344 0 10.203125-.902344 14.703125-2.101562zm0 0" fill="#6b0"/></svg>