<svg height="512pt" viewBox="0 0 512 512" width="512pt" xmlns="http://www.w3.org/2000/svg"><path d="m343.492188 274.574219-84.851563 84.851562-74.246094-31.820312-31.820312-74.246094 84.851562-84.851563 74.246094 31.820313zm0 0" fill="#ffd396"/><path d="m343.492188 274.574219-84.851563 84.851562-74.246094-31.820312 127.277344-127.277344zm0 0" fill="#ffb64c"/><path d="m258.640625 359.425781-84.855469 84.851563-74.246094-31.816406-31.816406-74.246094 84.851563-84.855469zm0 0" fill="#ffb64c"/><path d="m205.605469 306.394531 53.035156 53.03125-84.855469 84.851563-74.246094-31.816406zm0 0" fill="#ff9100"/><path d="m237.425781 168.507812 84.851563-84.851562 106.0625 106.066406-84.851563 84.851563zm0 0" fill="#faecd8"/><path d="m290.457031 221.542969 84.851563-84.851563 53.03125 53.03125-84.851563 84.851563zm0 0" fill="#ffd396"/><path d="m512 362v150h-122l-30-75 30-75zm0 0" fill="#ff9100"/><path d="m512 437v75h-122l-30-75zm0 0" fill="#ff641a"/><path d="m390 362v150h-120l-30-75 30-75zm0 0" fill="#ff641a"/><path d="m390 437v75h-120l-30-75zm0 0" fill="#f03800"/><path d="m270 362v150h-120l-30-75 30-75zm0 0" fill="#f03800"/><path d="m120 437h150v75h-120zm0 0" fill="#cd0000"/><path d="m0 0h150v122h-150zm0 0" fill="#fdbf00"/><path d="m150 122v120l-75 30-75-30v-120l75-30zm0 0" fill="#76e2f8"/><path d="m150 122v120l-75 30v-180zm0 0" fill="#25d9f8"/><path d="m150 242v120l-75 30-75-30v-120zm0 0" fill="#00c8c8"/><path d="m75 242h75v120l-75 30zm0 0" fill="#1cadb5"/><path d="m150 362v150h-105c-24.902344 0-45-20.101562-45-45v-105zm0 0" fill="#e0f4ff"/><path d="m75 362h75v150h-75zm0 0" fill="#bbdcff"/><path d="m60 422h30v30h-30zm0 0" fill="#61729b"/><path d="m75 422h15v30h-15zm0 0" fill="#47568c"/><path d="m0 0h150v122h-150zm0 0" fill="#9bfcff"/><path d="m75 0h75v122h-75zm0 0" fill="#76e2f8"/></svg>